# Blender v2.78 (sub 0) OBJ File: ''
# www.blender.org
mtllib 45_collider.mtl
o Plane
v -1.000000 1.000000 0.000000
v -1.000000 1.000000 1.000000
v 0.000000 1.000000 1.000000
v 0.000000 1.000000 0.000000
v -1.000000 0.000000 0.000000
v -1.000000 0.000000 1.000000
v 0.000000 0.000000 1.000000
v 0.000000 0.000000 0.000000
vn -0.0000 1.0000 0.0000
vn -1.0000 0.0000 0.0000
vn 0.0000 -1.0000 0.0000
vn 0.0000 0.0000 1.0000
vn 1.0000 0.0000 0.0000
vn 0.0000 0.0000 -1.0000
usemtl None
s 1
f 1//1 2//1 3//1 4//1
f 5//2 6//2 2//2 1//2
f 7//3 6//3 5//3 8//3
f 6//4 7//4 3//4 2//4
f 4//5 3//5 7//5 8//5
f 8//6 5//6 1//6 4//6
